Patient4_TMGait_0pt4_03_right_42_EMG.mot
version=1
nRows=23
nColumns=33
inDegrees=no
endheader
time	1LAddLong	2LGlutMax	3LGlutMed	4LIliopsoas	5LSemiMemb	6LBicFemLong	7LRecFem	8LVastMed	9LVastLat	10LGasMed	11LTibAnt	12lTibPost	13LPeroneusLong	14LSol	15LExtDigLong	16LFlexDigLong	17RAddLong	18RGlutMax	19RGlutMed	20RIliopsoas	21RSemiMemb	22RBicFemLong	23RRecFem	24RVastMed	25RVastLat	26RGasMed	27RTibAnt	28RTibPost	29RPeroneusLong	30RSol	31RExtDigLong	32RFlexDigLong
55.93	-0.028381	0.063019	0.034943	0.00061	-0.026703	0.24536	-0.062714	0.022278	0.013275	-0.006104	0.055542	0.015259	-0.023346	0.06897	-0.059967	0.015411	0.015411	0.27634	0.074158	-0.001526	-0.054779	0.049438	-0.24933	0.00473	0.029144	0.001526	-0.055237	0.001068	-0.48904	-0.057831	-0.002441	-0.00351
55.931	-0.027008	0.081482	-0.013123	0.013275	-0.090332	0.1384	-0.14984	0.00946	-0.046234	-0.00473	0.071411	0.010681	-0.029755	0.035095	-0.047607	0.002441	-0.001831	0.19562	-0.11017	0.088196	-0.03952	0.05722	-0.25223	-0.041351	0.056763	-0.002899	-0.018005	-0.000153	-0.35248	-0.12054	-0.005646	-0.004425
55.932	-0.01297	0.092773	-0.022736	0.011292	-0.13641	0.018463	-0.21652	0.00824	0.030212	-0.005798	0.16464	-0.000153	-0.002441	-0.00885	0.011902	0.009003	0.004425	0.22385	-0.048218	0.055389	-0.019379	0.090942	-0.27191	0.002899	0.041809	-0.018921	0.065613	0	0.052795	-0.071869	-0.003815	0.001984
55.933	-0.005341	0.082855	0.006866	0.004578	-0.097809	-0.1651	-0.17212	0.003204	-0.005646	0.014038	0.12405	-0.000763	0.016479	-0.031891	0.062408	-0.000916	0.003052	0.2214	0.030975	-0.00885	0.010223	0.10162	-0.26093	-0.013275	0.050964	-0.027466	0.069733	0.000153	0.22842	-0.056915	-0.004272	-0.004272
55.934	-0.019989	0.05661	0.044403	0.019531	-0.050201	-0.36652	-0.067596	-0.009613	-0.025482	-0.005035	-0.012665	-0.001678	0.04425	0.022736	0.025024	0.010986	-0.002594	0.21729	0.028076	-0.044861	0.030518	0.14526	-0.24185	-0.009766	0.036621	-0.018311	0.013885	-0.000153	-0.042267	0.023041	-0.001831	-0.005188
55.935	-0.006714	0.022736	0.043945	0.008392	0.003967	-0.23331	0.076599	-0.00061	-0.10101	-0.015411	-0.081177	0.006256	-0.002289	0.006409	0.033875	0.007782	-0.012512	0.13657	0.081787	0.004272	0.043793	0.15396	-0.22995	-0.000916	0.052795	-0.010223	-0.083618	-0.006866	0.040894	0.1091	-0.004272	-0.009155
55.936	0.002594	-0.041809	0.02655	0.013733	0.053711	-0.049286	0.080566	0.003967	-0.15518	0.009918	-0.20813	-0.001678	-0.047455	0.027771	0.041351	-0.003967	-0.007324	0.1535	0.085449	0.034332	0.039978	0.093994	-0.23438	0.016937	0.054169	-0.020142	-0.035706	-0.008087	0.04303	0.14191	-0.002136	-0.023956
55.937	0.004425	-0.099335	0.048523	0.007324	0.032349	-0.005951	0.094604	0.00351	-0.067596	0.01709	-0.14358	-0.002747	-0.050812	0.04837	-0.067902	-0.005341	-0.00946	0.000305	0.14954	0.025635	0.031586	0.035858	-0.2507	0.022125	0.040131	-0.021057	-0.019226	0.002289	0.040894	0.067291	-0.005035	-0.022125
55.938	-0.009613	-0.14038	0.039978	0.009155	0.027008	0.083008	0.069733	0.012207	0.027771	-0.000458	-0.061493	-0.006561	0.020142	0.052185	-0.0737	0.002899	-0.000153	0.019989	0.15945	0.017548	0.010529	0.021362	-0.22736	-0.045776	0.009918	-0.013733	0.069733	0.010986	-0.24948	0.085449	-0.007629	-0.027008
55.939	-0.02182	-0.15671	0.056152	0.000153	-0.050964	0.16464	0.022888	0.010834	0.10391	0.004578	-0.040894	-0.006561	0.050507	0.030975	0.032806	-0.001526	0.003052	0.062714	0.14664	0.011902	-0.039673	0.058594	-0.21683	0.017395	-0.001068	-0.009766	0.18936	-0.000916	-0.11551	0.039063	-0.002289	-0.028381
55.94	-0.028229	-0.13306	0.03479	-0.003204	-0.11902	0.25391	-0.061188	0.008545	0.15518	0.018158	-0.018311	0.001373	0.036316	-0.014496	0.043793	0.00946	-0.003815	0.072632	0.076752	0.018311	-0.043793	0.11536	-0.20584	-0.010681	-0.030975	-0.002136	0.1738	-0.000763	0.37643	0.03479	-0.001678	-0.018921
55.941	-0.035706	-0.094299	0.017853	0.001831	-0.1207	0.35584	-0.044403	0.005646	0.16861	0.010986	-0.001678	0.006104	0.027771	-0.031128	-0.02655	0.011749	0.009766	0.031433	0.087738	0.007782	-0.027466	0.081024	-0.17136	-0.032501	-0.02655	-0.002747	0.12314	0.000305	0.40924	0.075226	-0.003967	-0.020447
55.942	-0.010223	0.007019	-0.022583	-0.007935	-0.001068	0.25604	-0.067291	0.011292	0.057068	0.009613	0.00473	0.00412	-0.004578	0.014343	-0.058899	0.002899	0.005341	0.011902	0.053864	-0.007172	-0.018005	0.089874	-0.2272	-0.039063	-0.037842	-0.014496	0.059204	-0.002289	-0.005646	0.019989	-0.00412	-0.023346
55.943	-0.008698	-0.13718	-0.045624	0.005646	-0.016785	0.06134	-0.005646	0.006866	-0.16693	0.00885	-0.010834	0.010223	-0.00824	-0.001373	-0.0737	0.009003	0.027771	-0.027161	0.13809	-0.040283	-0.006866	0.10468	-0.20111	-0.075226	-0.024872	-0.014343	-0.039978	-0.000458	-0.40802	0.047455	-0.002441	-0.024109
55.944	-0.001984	-0.22095	-0.035248	-0.001984	0.057526	-0.042572	0.066376	0.003204	-0.26688	0.013428	-0.034943	0.010986	-0.024719	0.005493	-0.078888	0.021362	0.039978	-0.003204	0.090027	-0.011139	-0.007324	0.041351	-0.23209	-0.061951	-0.032196	-0.016022	0.15289	0.007324	-0.45273	0.061798	-0.000916	-0.017395
55.945	0.019989	-0.20035	-0.045929	-0.00824	0.067139	-0.069733	-0.003052	-0.002289	-0.30502	0.010986	-0.039368	0.00946	-0.040588	-0.001221	-0.06134	0.025635	0.028839	-0.03067	0.063324	-0.009766	-0.035858	-0.028229	-0.22171	-0.063171	-0.031281	-0.014038	0.159	0.000916	0.80826	-0.072021	0.000763	-0.01358
55.946	0.027924	-0.17212	-0.066071	-0.012665	0.072174	-0.077057	-0.07019	-0.003662	-0.11398	0.006104	0.012665	0.011902	-0.030365	0.007629	-0.026703	0.025482	-0.01297	-0.071259	0.052185	-0.07019	-0.028229	-0.086517	-0.25375	-0.068054	-0.040283	-0.001831	-0.11566	0	0.9433	-0.10651	-0.005035	-0.005951
55.947	0.023346	-0.099792	-0.10757	0.007172	0.096283	-0.011139	-0.076599	-0.003967	0.11108	0.007629	0.072327	0.018311	-0.11887	0.036926	0.014801	0.024719	-0.069427	-0.12192	0.070038	-0.098724	-0.043488	-0.11673	-0.27481	-0.08667	-0.023651	0.004425	-0.19196	0.001984	0.22568	-0.067749	-0.001984	-0.00351
55.948	0.012665	-0.040283	-0.15976	0.042419	0.041046	-0.084991	-0.045929	-0.002136	0.2626	-0.007935	0.10819	0.024872	-0.14603	0.059509	0.030823	0.02182	-0.061646	-0.13168	0.0383	-0.080566	-0.090027	-0.11627	-0.2681	-0.028076	-0.00061	0.020447	-0.40009	-0.001068	-0.3981	-0.074615	-0.000763	-0.003967
55.949	0.003662	0.021973	-0.074768	0.027161	0.01358	-0.30746	0.1265	-0.016327	0.18585	-0.00885	0.054779	0.011444	-0.065155	0.082245	0.28122	0.024414	-0.060883	-0.1329	0.063324	-0.019226	-0.08667	-0.091705	-0.28076	-0.02655	-0.028687	0.013428	-0.13977	-0.000305	-0.41489	-0.016937	0.00351	0.007782
55.95	-0.003052	0.027313	-0.014954	0.013733	-0.000763	-0.50888	0.2095	-0.005646	-0.13031	-0.013123	0.011597	0.014343	0.006866	0.11627	0.10864	0.033417	-0.017242	-0.1207	0.069733	0.10819	-0.071716	-0.060883	-0.25635	-0.02182	-0.040741	0.012207	-0.075378	-0.00061	-0.11902	-0.037537	-0.001373	-0.006866
55.951	-0.014343	0.050049	0.024872	0.008087	0.004425	-0.13565	0.16769	0.013428	-0.35248	0.017548	-0.01236	0.011292	0.002747	0.10178	-0.060883	0.035553	0.025787	-0.13321	0.052032	0.052185	-0.031433	-0.027161	-0.31601	-0.012512	-0.023651	0.001221	0.022278	-0.00061	-0.15091	-0.008545	0.010986	-0.006104
55.952	0.002441	0.056763	0.065918	0.003662	0.045929	0.16754	0.010223	0.033112	-0.25116	0.023346	-0.069427	0.027924	-0.010529	0.08194	-0.11429	0.023346	-0.008698	-0.083313	0.083008	-0.06958	-0.035095	0.021057	-0.32044	-0.067444	-0.032501	-0.003357	0.1297	0.002594	-0.2977	-0.036163	-0.001526	-0.017242
